<svg height="160" width="804"><g transform="translate(20, 30)"><g class="dummy-layer" /><g class="main-layer" transform="translate(0, 0)"><g><line class="timeline" style="stroke-width: 2px; stroke: #222;" x2="764" /></g><g class="axis-layer"><g class="tick" style="opacity: 1;" transform="translate(0.0000000000000000, 0)"><line style="stroke-width: 1px; stroke: #222;" x2="0" y2="-6" /><text dy="0em" style="text-anchor: middle;" x="0" y="-9">Mar 14</text></g><g class="tick" style="opacity: 1;" transform="translate(76.4000000000000057, 0)"><line style="stroke-width: 1px; stroke: #222;" x2="0" y2="-6" /><text dy="0em" style="text-anchor: middle;" x="0" y="-9">Mar 21</text></g><g class="tick" style="opacity: 1;" transform="translate(152.8000000000000114, 0)"><line style="stroke-width: 1px; stroke: #222;" x2="0" y2="-6" /><text dy="0em" style="text-anchor: middle;" x="0" y="-9">Mar 28</text></g><g class="tick" style="opacity: 1;" transform="translate(229.1999999999999886, 0)"><line style="stroke-width: 1px; stroke: #222;" x2="0" y2="-6" /><text dy="0em" style="text-anchor: middle;" x="0" y="-9">Apr 04</text></g><g class="tick" style="opacity: 1;" transform="translate(305.6000000000000227, 0)"><line style="stroke-width: 1px; stroke: #222;" x2="0" y2="-6" /><text dy="0em" style="text-anchor: middle;" x="0" y="-9">Apr 11</text></g><g class="tick" style="opacity: 1;" transform="translate(382.0000000000000000, 0)"><line style="stroke-width: 1px; stroke: #222;" x2="0" y2="-6" /><text dy="0em" style="text-anchor: middle;" x="0" y="-9">Apr 18</text></g><g class="tick" style="opacity: 1;" transform="translate(458.3999999999999773, 0)"><line style="stroke-width: 1px; stroke: #222;" x2="0" y2="-6" /><text dy="0em" style="text-anchor: middle;" x="0" y="-9">Apr 25</text></g><g class="tick" style="opacity: 1;" transform="translate(534.7999999999999545, 0)"><line style="stroke-width: 1px; stroke: #222;" x2="0" y2="-6" /><text dy="0em" style="text-anchor: middle;" x="0" y="-9">May 02</text></g><g class="tick" style="opacity: 1;" transform="translate(611.2000000000000455, 0)"><line style="stroke-width: 1px; stroke: #222;" x2="0" y2="-6" /><text dy="0em" style="text-anchor: middle;" x="0" y="-9">May 09</text></g><g class="tick" style="opacity: 1;" transform="translate(687.6000000000000227, 0)"><line style="stroke-width: 1px; stroke: #222;" x2="0" y2="-6" /><text dy="0em" style="text-anchor: middle;" x="0" y="-9">May 16</text></g><g class="tick" style="opacity: 1;" transform="translate(764.0000000000000000, 0)"><line style="stroke-width: 1px; stroke: #222;" x2="0" y2="-6" /><text dy="0em" style="text-anchor: middle;" x="0" y="-9">May 23</text></g></g><g class="link-layer"><path class="link" d="M 316.51428571 0.00000000 C 316.51428571 20.00000000 260.00000000 20.00000000 260.00000000 40.00000000 L 260.00000000 56.00000000 C 260.00000000 76.00000000 260.00000000 76.00000000 260.00000000 96.00000000" style="stroke: rgb(31, 119, 180); stroke-width: 2; fill: none;" /><path class="link" d="M 338.34285714 0.00000000 C 338.34285714 20.00000000 337.00000000 20.00000000 337.00000000 40.00000000" style="stroke: rgb(255, 127, 14); stroke-width: 2; fill: none;" /><path class="link" d="M 731.25714286 0.00000000 C 731.25714286 20.00000000 653.00000000 20.00000000 653.00000000 40.00000000" style="stroke: rgb(44, 160, 44); stroke-width: 2; fill: none;" /><path class="link" d="M 120.05714286 0.00000000 C 120.05714286 20.00000000 155.00000000 20.00000000 155.00000000 40.00000000" style="stroke: rgb(214, 39, 40); stroke-width: 2; fill: none;" /><path class="link" d="M 392.91428571 0.00000000 C 392.91428571 20.00000000 451.00000000 20.00000000 451.00000000 40.00000000" style="stroke: rgb(148, 103, 189); stroke-width: 2; fill: none;" /><path class="link" d="M 742.17142857 0.00000000 C 742.17142857 20.00000000 765.00000000 20.00000000 765.00000000 40.00000000" style="stroke: rgb(140, 86, 75); stroke-width: 2; fill: none;" /><path class="link" d="M 654.85714286 0.00000000 C 654.85714286 20.00000000 565.00000000 20.00000000 565.00000000 40.00000000" style="stroke: rgb(227, 119, 194); stroke-width: 2; fill: none;" /><path class="link" d="M 98.22857143 0.00000000 C 98.22857143 20.00000000 85.00000000 20.00000000 85.00000000 40.00000000" style="stroke: rgb(127, 127, 127); stroke-width: 2; fill: none;" /><path class="link" d="M 87.31428571 0.00000000 C 87.31428571 20.00000000 66.00000000 20.00000000 66.00000000 40.00000000 L 66.00000000 56.00000000 C 66.00000000 76.00000000 66.00000000 76.00000000 66.00000000 96.00000000" style="stroke: rgb(188, 189, 34); stroke-width: 2; fill: none;" /><path class="link" d="M 0.00000000 0.00000000 C 0.00000000 20.00000000 27.00000000 20.00000000 27.00000000 40.00000000" style="stroke: rgb(23, 190, 207); stroke-width: 2; fill: none;" /></g><g class="label-layer"><g class="label-g" transform="translate(198, 96)"><rect class="label-bg" height="16.0" rx="2" ry="2" style="fill:rgb(31, 119, 180);" width="123" /><text class="label-text" dx="0.15em" dy="0.85em" style="fill: rgb(255, 255, 255);" x="0" y="1">Online class upto: 12, 4</text></g><g class="label-g" transform="translate(264, 40)"><rect class="label-bg" height="16.0" rx="2" ry="2" style="fill:rgb(255, 127, 14);" width="146" /><text class="label-text" dx="0.15em" dy="0.85em" style="fill: rgb(255, 255, 255);" x="0" y="1">Thesis pre-defence: April 14</text></g><g class="label-g" transform="translate(579, 40)"><rect class="label-bg" height="16.0" rx="2" ry="2" style="fill:rgb(44, 160, 44);" width="147" /><text class="label-text" dx="0.15em" dy="0.85em" style="fill: rgb(255, 255, 255);" x="0" y="1">Thesis final defence: May 20</text></g><g class="label-g" transform="translate(103, 40)"><rect class="label-bg" height="16.0" rx="2" ry="2" style="fill:rgb(214, 39, 40);" width="104" /><text class="label-text" dx="0.15em" dy="0.85em" style="fill: rgb(255, 255, 255);" x="0" y="1">CIP application due</text></g><g class="label-g" transform="translate(412, 40)"><rect class="label-bg" height="16.0" rx="2" ry="2" style="fill:rgb(148, 103, 189);" width="77" /><text class="label-text" dx="0.15em" dy="0.85em" style="fill: rgb(255, 255, 255);" x="0" y="1">CIP class start</text></g><g class="label-g" transform="translate(729, 40)"><rect class="label-bg" height="16.0" rx="2" ry="2" style="fill:rgb(140, 86, 75);" width="71" /><text class="label-text" dx="0.15em" dy="0.85em" style="fill: rgb(255, 255, 255);" x="0" y="1">CIP class end</text></g><g class="label-g" transform="translate(554, 40)"><rect class="label-bg" height="16.0" rx="2" ry="2" style="fill:rgb(227, 119, 194);" width="22" /><text class="label-text" dx="0.15em" dy="0.85em" style="fill: rgb(255, 255, 255);" x="0" y="1">EID</text></g><g class="label-g" transform="translate(70, 40)"><rect class="label-bg" height="16.0" rx="2" ry="2" style="fill:rgb(127, 127, 127);" width="30" /><text class="label-text" dx="0.15em" dy="0.85em" style="fill: rgb(255, 255, 255);" x="0" y="1">today</text></g><g class="label-g" transform="translate(31, 96)"><rect class="label-bg" height="16.0" rx="2" ry="2" style="fill:rgb(188, 189, 34);" width="69" /><text class="label-text" dx="0.15em" dy="0.85em" style="fill: rgb(255, 255, 255);" x="0" y="1">DM Lab viva</text></g><g class="label-g" transform="translate(0, 40)"><rect class="label-bg" height="16.0" rx="2" ry="2" style="fill:rgb(23, 190, 207);" width="54" /><text class="label-text" dx="0.15em" dy="0.85em" style="fill: rgb(255, 255, 255);" x="0" y="1">DM Lab 3</text></g></g><g class="dot-layer"><circle class="dot" cx="316.51428571428573" r="3" style="fill: rgb(31, 119, 180);" /><circle class="dot" cx="338.34285714285716" r="3" style="fill: rgb(255, 127, 14);" /><circle class="dot" cx="731.2571428571429" r="3" style="fill: rgb(44, 160, 44);" /><circle class="dot" cx="120.05714285714285" r="3" style="fill: rgb(214, 39, 40);" /><circle class="dot" cx="392.91428571428565" r="3" style="fill: rgb(148, 103, 189);" /><circle class="dot" cx="742.1714285714286" r="3" style="fill: rgb(140, 86, 75);" /><circle class="dot" cx="654.8571428571428" r="3" style="fill: rgb(227, 119, 194);" /><circle class="dot" cx="98.22857142857141" r="3" style="fill: rgb(127, 127, 127);" /><circle class="dot" cx="87.31428571428572" r="3" style="fill: rgb(188, 189, 34);" /><circle class="dot" cx="0.0" r="3" style="fill: rgb(23, 190, 207);" /></g></g></g></svg>